<svg width="86" height="69" viewBox="0 0 86 69" fill="none" xmlns="http://www.w3.org/2000/svg">
<path d="M18.5654 2.00293C19.7472 1.58287 21.1321 1.92077 22.8447 3.32129C24.5471 4.71352 26.225 6.89629 27.7314 9.30664C29.2224 11.6922 30.4746 14.183 31.3574 16.0889C31.7974 17.0388 32.1427 17.8366 32.377 18.3945C32.4068 18.4657 32.4337 18.5335 32.46 18.5967L24.8857 37.4482C24.8668 37.4508 24.8475 37.4544 24.8281 37.457C24.1384 37.551 23.1482 37.673 21.958 37.7832C19.5685 38.0045 16.4117 38.1744 13.2754 37.9873C10.1008 37.7979 7.13363 37.2514 5.00684 36.1621C2.97417 35.1209 1.86669 33.6941 1.83398 31.5684C1.74941 26.0638 4.01938 19.2987 7.40039 13.4932C9.07902 10.6108 10.996 8.02841 12.958 6.00977C14.939 3.97166 16.8722 2.60498 18.5654 2.00293Z" fill="#FF5F9E" stroke="black" stroke-width="3.66309"/>
<path d="M35.4509 20.4581C39.8476 21.65 45.039 24.9296 48.1218 28.1837L48.1179 28.1808C48.1368 28.2144 48.2099 28.3707 48.2068 28.7794C48.2027 29.3099 48.0678 30.048 47.7654 30.9747C47.1638 32.818 46.0188 35.0531 44.6384 37.1954C43.2594 39.3356 41.7164 41.273 40.3826 42.547C39.7067 43.1925 39.1615 43.593 38.781 43.7872C38.7387 43.8088 38.7011 43.825 38.6697 43.839C37.1124 43.0283 35.2109 42.143 33.2849 41.2443C31.2677 40.3029 29.2063 39.3362 27.3611 38.3751C27.3416 38.3207 27.3142 38.2299 27.2908 38.087C27.2121 37.6081 27.2233 36.8631 27.3796 35.8595C27.6887 33.8751 28.4946 31.3174 29.5886 28.798C30.683 26.2776 32.0093 23.9268 33.2917 22.3204C33.9379 21.5111 34.5071 20.9739 34.9587 20.6818C35.2602 20.4868 35.4118 20.4611 35.4509 20.4581Z" fill="#FF5F9E" stroke="black" stroke-width="3.66309"/>
<path d="M72.99 30.5293C72.6397 29.3249 71.5552 28.3985 69.4175 27.8282C67.2927 27.2615 64.5411 27.1776 61.7051 27.3651C58.8981 27.5507 56.1453 27.9915 54.0831 28.3899C53.0553 28.5884 52.2061 28.7749 51.6165 28.9112C51.5413 28.9285 51.4705 28.9464 51.404 28.962L40.482 46.2235C40.5036 46.2758 40.5247 46.3309 40.5484 46.3875C40.8189 47.0346 41.2175 47.9559 41.7262 49.0417C42.7479 51.2221 44.1955 54.029 45.9222 56.6072C47.6746 59.2238 49.5974 61.426 51.5151 62.5903C52.4512 63.1586 53.3126 63.4344 54.1055 63.4532C54.8747 63.4714 55.7144 63.2517 56.6459 62.6018C61.1889 59.4317 65.8911 53.2986 69.1635 46.8289C70.7885 43.6162 72.0236 40.3935 72.7046 37.508C73.3952 34.5821 73.4726 32.1891 72.99 30.5293Z" fill="#FF5F9E" stroke="black" stroke-width="3.66309"/>
<path d="M26.9237 29.671L14.6524 28.9384" stroke="black" stroke-width="5.49464"/>
<path d="M30.8203 24.4916L20.9109 17.2165" stroke="black" stroke-width="5.49464"/>
<path d="M44.6897 38.8824L51.5715 49.0688" stroke="black" stroke-width="5.49464"/>
<path d="M47.1617 32.8908L58.4701 37.7118" stroke="black" stroke-width="5.49464"/>
</svg>
