<svg preserveAspectRatio="none" width="100%" height="100%" overflow="visible" style="display: block;" viewBox="0 0 32 204" fill="none" xmlns="http://www.w3.org/2000/svg">
<g id="Frame 5">
<path id="Vector 6" d="M19.2756 5.5332C23.0437 1.71519 29.5461 4.38356 29.5461 9.74805V43.3271C29.5461 48.872 22.6693 51.4499 19.0246 47.2715L3.47771 29.4453C1.41411 27.0791 1.52433 23.5219 3.72966 21.2871L19.2756 5.5332Z" fill="var(--fill-0, #D9D9D9)" stroke="var(--stroke-0, black)" stroke-width="4"/>
<path id="Vector 7" d="M19.2756 80.5332C23.0437 76.7152 29.5461 79.3836 29.5461 84.748V118.327C29.5461 123.872 22.6693 126.45 19.0246 122.271L3.47771 104.445C1.41411 102.079 1.52433 98.5219 3.72966 96.2871L19.2756 80.5332Z" fill="var(--fill-0, #D9D9D9)" stroke="var(--stroke-0, black)" stroke-width="4"/>
<path id="Vector 8" d="M19.2756 155.533C23.0437 151.715 29.5461 154.384 29.5461 159.748V193.327C29.5461 198.872 22.6693 201.45 19.0246 197.271L3.47771 179.445C1.41411 177.079 1.52433 173.522 3.72966 171.287L19.2756 155.533Z" fill="var(--fill-0, #D9D9D9)" stroke="var(--stroke-0, black)" stroke-width="4"/>
</g>
</svg>
