<svg preserveAspectRatio="none" width="100%" height="100%" overflow="visible" style="display: block;" viewBox="0 0 162 99" fill="none" xmlns="http://www.w3.org/2000/svg">
<g id="Group 20">
<path id="Vector 19" d="M139 92.9443C138.438 94.8181 138.426 94.8593 138.426 94.8604H138.427L138.439 94.8643C138.446 94.8663 138.455 94.8686 138.467 94.8721C138.49 94.8789 138.523 94.8885 138.565 94.9004C138.648 94.9242 138.768 94.9582 138.92 94.999C139.224 95.0807 139.657 95.1923 140.191 95.3154C141.255 95.5611 142.735 95.8574 144.387 96.0557C146.032 96.2531 147.897 96.3592 149.718 96.2031C151.522 96.0485 153.419 95.6249 155.029 94.6592C156.071 94.0339 156.84 93.0454 157.412 92.0078C157.996 90.9513 158.456 89.6993 158.815 88.3604C159.533 85.6812 159.905 82.4283 159.938 79.1514C159.97 75.8701 159.663 72.4728 158.972 69.499C158.296 66.5932 157.189 63.8047 155.414 62.0303C151.936 58.552 147.305 58.6885 143.999 59.4307C142.306 59.8107 140.821 60.3763 139.765 60.8408C139.234 61.0744 138.803 61.2854 138.501 61.4414C138.35 61.5194 138.231 61.5842 138.146 61.6309C138.103 61.6542 138.069 61.6736 138.044 61.6875C138.032 61.6944 138.022 61.6997 138.014 61.7041C138.01 61.7063 138.007 61.7084 138.004 61.71C138.003 61.7107 138.001 61.7113 138 61.7119L137.999 61.7129C137.999 61.7133 137.998 61.7135 139 63.4443L137.998 61.7139L137 62.291V94.4326L138.425 94.8604L139 92.9443Z" fill="var(--fill-0, #F5A209)" stroke="var(--stroke-0, black)" stroke-width="4"/>
<path id="Vector 18" d="M22.9395 92.9443C23.5016 94.8181 23.5139 94.8593 23.5137 94.8604H23.5127L23.501 94.8643C23.494 94.8663 23.4844 94.8686 23.4727 94.8721C23.4493 94.8789 23.4166 94.8885 23.375 94.9004C23.2914 94.9242 23.1714 94.9582 23.0195 94.999C22.716 95.0807 22.2827 95.1923 21.749 95.3154C20.6845 95.5611 19.2048 95.8574 17.5527 96.0557C15.9076 96.2531 14.043 96.3592 12.2217 96.2031C10.4179 96.0485 8.52071 95.6249 6.91113 94.6592C5.86901 94.0339 5.10017 93.0454 4.52734 92.0078C3.94407 90.9513 3.48402 89.6993 3.125 88.3604C2.40667 85.6812 2.0344 82.4283 2.00195 79.1514C1.96948 75.8701 2.2764 72.4728 2.96777 69.499C3.64338 66.5932 4.75101 63.8047 6.52539 62.0303C10.0037 58.552 14.6346 58.6885 17.9404 59.4307C19.6334 59.8107 21.1191 60.3763 22.1748 60.8408C22.7057 61.0744 23.1362 61.2854 23.4385 61.4414C23.5896 61.5194 23.709 61.5842 23.7939 61.6309C23.8364 61.6542 23.8708 61.6736 23.8955 61.6875C23.9077 61.6944 23.9181 61.6997 23.9258 61.7041C23.9296 61.7063 23.9329 61.7084 23.9355 61.71C23.9368 61.7107 23.9384 61.7113 23.9395 61.7119L23.9404 61.7129C23.9411 61.7133 23.9415 61.7135 22.9395 63.4443L23.9414 61.7139L24.9395 62.291V94.4326L23.5146 94.8604L22.9395 92.9443Z" fill="var(--fill-0, #F5A209)" stroke="var(--stroke-0, black)" stroke-width="4"/>
<path id="Vector 20" d="M15.0373 57C15.0373 57 11.2653 1.99998 79.6327 2C148 2.00002 148 57 148 57" stroke="var(--stroke-0, black)" stroke-width="4"/>
</g>
</svg>
