<svg preserveAspectRatio="none" width="100%" height="100%" overflow="visible" style="display: block;" viewBox="0 0 26 27" fill="none" xmlns="http://www.w3.org/2000/svg">
<path id="Vector 9" d="M5.64082 2.05332C8.65437 0.961484 10.9416 2.6622 12.2043 4.10801C12.3724 4.30051 12.529 4.49581 12.675 4.68906C12.6919 4.66779 12.7087 4.64589 12.7258 4.62461C13.2136 4.01634 13.8385 3.34399 14.5676 2.82871C15.2829 2.32316 16.2776 1.84403 17.4367 1.95957C18.8341 2.09895 19.9371 2.48575 20.8029 3.05332C21.6732 3.62379 22.2117 4.31639 22.5637 4.92343C22.9191 5.53657 23.37 6.65085 23.5227 7.87558C23.673 9.08221 23.5712 10.7749 22.3068 12.065C21.6166 12.7693 19.5384 15.1567 17.5773 17.4361C16.6095 18.5611 15.6873 19.6398 15.007 20.4371C14.667 20.8356 14.387 21.1637 14.1926 21.3922C14.0954 21.5064 14.0196 21.5961 13.968 21.6568C13.9422 21.6872 13.9226 21.7106 13.9094 21.7262C13.9028 21.7339 13.8981 21.7398 13.8947 21.7437L13.8898 21.7486V21.7496L12.5939 20.649L13.8889 21.7496L12.4641 23.4273L11.2014 21.6236L2.27754 8.87558L2.21992 8.79355L2.17305 8.70566L3.67012 7.90097L2.1711 8.70371L2.17012 8.70078L2.16328 8.68711C2.15976 8.68038 2.15576 8.67287 2.15156 8.66465C2.14306 8.64796 2.13319 8.6278 2.12227 8.60508C2.10046 8.55968 2.07382 8.50189 2.04512 8.4332C1.98809 8.29668 1.91931 8.11199 1.8586 7.88828C1.73893 7.44723 1.63629 6.80818 1.74629 6.07383C1.99152 4.43724 3.17841 2.94553 5.64082 2.05332Z" fill="var(--fill-0, #A41800)" stroke="var(--stroke-0, black)" stroke-width="3.39957" stroke-linejoin="bevel"/>
</svg>
