<svg preserveAspectRatio="none" width="100%" height="100%" overflow="visible" style="display: block;" viewBox="0 0 36 38" fill="none" xmlns="http://www.w3.org/2000/svg">
<path id="Vector 4" d="M22.1625 1.48057V9.18467C22.3251 9.29049 22.5123 9.4114 22.7172 9.54795C23.4617 10.0443 24.4608 10.7339 25.4652 11.4991C26.4608 12.2576 27.5034 13.1219 28.3109 13.9679C28.7136 14.3898 29.0932 14.8431 29.3803 15.3077C29.6514 15.7468 29.9348 16.3463 29.935 17.0255C29.935 17.4201 30.0452 18.2153 30.2553 19.3009C30.4575 20.346 30.7291 21.5487 31.0043 22.6954C31.2789 23.8397 31.5545 24.9172 31.7611 25.7091C31.8643 26.1045 31.9501 26.4281 32.0101 26.6524C32.0401 26.7646 32.0635 26.8522 32.0795 26.9112C32.0875 26.9407 32.093 26.9637 32.0971 26.9786C32.0991 26.986 32.101 26.9916 32.1019 26.9952C32.1024 26.9969 32.1027 26.9983 32.1029 26.9991L32.1039 27.0001L32.9545 30.1212L30.0365 28.7257L22.5717 25.1544L16.6459 32.3985L14.7357 34.7335L14.057 31.794L12.3021 24.1925L5.18104 28.6446L2.19765 30.5089L2.9496 27.0733V27.0724L2.95058 27.0704C2.95092 27.0688 2.95093 27.0664 2.95155 27.0636C2.95287 27.0576 2.95488 27.0487 2.95741 27.0372C2.9625 27.0141 2.97007 26.9799 2.97987 26.9356C2.99951 26.847 3.02862 26.7174 3.06581 26.5519C3.14022 26.2206 3.24828 25.7455 3.38222 25.169C3.64989 24.0169 4.02264 22.4552 4.44276 20.8214C4.86206 19.1908 5.33229 17.4721 5.7953 16.0118C6.23555 14.6234 6.73021 13.2613 7.23573 12.503C8.23454 11.0051 10.0771 10.0332 11.4008 9.46592C11.9577 9.22726 12.4804 9.03672 12.9086 8.89366V1.48057H22.1625Z" fill="var(--fill-0, #1B7F07)" stroke="var(--stroke-0, #082F00)" stroke-width="2.96104"/>
</svg>
