<svg preserveAspectRatio="none" width="100%" height="100%" overflow="visible" style="display: block;" viewBox="0 0 171 117" fill="none" xmlns="http://www.w3.org/2000/svg">
<g id="Vector 31">
<path d="M28.8602 96.9646C25.5811 89.2352 25.1126 79.8663 25.1126 79.8663C25.1126 79.8663 30.734 76.5871 36.3554 70.4973C41.9768 64.4074 44.5532 56.2096 44.5532 56.2096C44.5532 56.2096 46.427 60.4256 46.1928 65.1101C45.9585 69.7946 44.5532 73.0737 44.5532 73.0737C53.1064 64.0547 57.2284 58.4887 63.5254 47.7775C63.8023 59.7193 65.8267 64.7816 72.4259 71.1999C72.6864 57.1393 74.8449 51.1973 82.966 44.7326C84.4602 58.5456 87.5877 65.1383 100.767 73.0737C96.9515 65.2467 96.3273 60.9243 99.3617 53.3989C105.005 66.8175 109.265 72.8758 124.19 77.524C119.438 70.551 118.688 66.3762 119.739 59.2545C125.571 71.6183 130.136 77.7541 140.585 81.3315C140.812 93.4473 138.588 99.3707 131.216 108.676C138.065 106.118 141.079 103.408 145.27 96.7304C143.731 103.967 142.314 107.981 138.009 115C151.378 105.141 156.636 97.2273 156.319 81.9743C161.07 79.8904 162.743 75.1568 165.413 65.5786C165.601 57.0705 163.121 52.8902 152.531 46.8406C160.394 47.1713 164.8 46.3251 169.395 43.093C162.27 45.8751 138.477 -0.47264 108.731 2.10374C78.9842 4.68012 84.8944 11.5001 83.8944 12.0001C82.8944 12.5001 71.7232 1.16691 52.9853 2.80641C34.2473 4.44591 20.7649 27.067 4.96926 29.2738C10.106 33.2607 14.4986 34.3459 22.5361 34.6609C11.3232 42.0883 6.60148 47.4389 4.26659 61.5967C3.02097 73.3446 4.90407 78.6661 9.88798 87.3614L17.6174 76.5871C17.6174 76.5871 16.2121 94.3882 22.5361 103.054C28.8602 111.721 36.3554 110.315 36.3554 110.315C31.464 103.491 32.1393 104.694 28.8602 96.9646Z" fill="var(--fill-0, #412401)"/>
<path d="M145.27 82.6769C143.583 82.2708 142.028 81.8256 140.585 81.3315M140.585 81.3315C130.136 77.7541 125.571 71.6183 119.739 59.2545C118.688 66.3762 119.438 70.551 124.19 77.524C109.265 72.8758 105.005 66.8175 99.3617 53.3989C96.3273 60.9243 96.9515 65.2467 100.767 73.0737C87.5877 65.1383 84.4602 58.5456 82.966 44.7326C74.8449 51.1973 72.6864 57.1393 72.4259 71.1999C65.8267 64.7816 63.8023 59.7193 63.5254 47.7775C57.2284 58.4887 53.1064 64.0547 44.5532 73.0737C44.5532 73.0737 45.9585 69.7946 46.1928 65.1101C46.427 60.4256 44.5532 56.2096 44.5532 56.2096C44.5532 56.2096 41.9768 64.4074 36.3554 70.4973C30.734 76.5871 25.1126 79.8663 25.1126 79.8663C25.1126 79.8663 25.5811 89.2352 28.8602 96.9646C32.1393 104.694 31.464 103.491 36.3554 110.315C36.3554 110.315 28.8602 111.721 22.5361 103.054C16.2121 94.3882 17.6174 76.5871 17.6174 76.5871L9.88798 87.3614C4.90407 78.6661 3.02097 73.3446 4.26659 61.5967C6.60148 47.4389 11.3232 42.0883 22.5361 34.6609C14.4986 34.3459 10.106 33.2607 4.96926 29.2738C20.7649 27.067 34.2473 4.44591 52.9853 2.80641C71.7232 1.16691 82.8944 12.5001 83.8944 12.0001C84.8944 11.5001 78.9842 4.68012 108.731 2.10374C138.477 -0.47264 162.27 45.8751 169.395 43.093C164.8 46.3251 160.394 47.1713 152.531 46.8406C163.121 52.8902 165.601 57.0705 165.413 65.5786C162.743 75.1568 161.07 79.8904 156.319 81.9743M140.585 81.3315C140.812 93.4473 138.588 99.3707 131.216 108.676C138.065 106.118 141.079 103.408 145.27 96.7304C143.731 103.967 142.314 107.981 138.009 115C151.378 105.141 156.636 97.2273 156.319 81.9743M155.576 72.6053C156.007 76.0243 156.26 79.1271 156.319 81.9743" stroke="var(--stroke-0, black)" stroke-width="4" stroke-linecap="round"/>
</g>
</svg>
