<svg preserveAspectRatio="none" width="100%" height="100%" overflow="visible" style="display: block;" viewBox="0 0 103 95" fill="none" xmlns="http://www.w3.org/2000/svg">
<path id="Vector" d="M51.1475 1.5C78.1934 1.50017 100.794 18.6083 100.794 40.4473C100.794 62.2864 78.1936 79.3953 51.1475 79.3955C47.3913 79.3955 43.7582 79.0324 40.2568 78.4111C37.2768 81.7722 34.0641 84.4891 29.7666 86.6777C25.2187 88.9938 19.5297 90.6819 11.7471 91.9795L7.76074 92.6445L10.3477 89.54C14.0668 85.0768 15.9117 81.5096 17.0068 78.3486C18.0124 75.446 18.3844 72.9441 18.9795 70.1201C8.377 63.0429 1.5 52.4348 1.5 40.4473C1.50031 18.6082 24.1013 1.5 51.1475 1.5Z" fill="var(--fill-0, white)" stroke="var(--stroke-0, #AACCFF)" stroke-width="3"/>
</svg>
