<svg preserveAspectRatio="none" width="100%" height="100%" overflow="visible" style="display: block;" viewBox="0 0 118 62" fill="none" xmlns="http://www.w3.org/2000/svg">
<path id="Vector 30" d="M48.3119 4.59447L70.8246 18.573L70.2494 10.7263L70.0199 7.59056L72.3119 9.7429L87.7221 24.2117L88.8129 18.4099L89.4076 15.2429L91.0687 18.0046L96.6674 27.3142L110.907 25.4206L114.135 24.9919L111.993 27.4431L103.951 36.6433L110.464 54.2097L111.84 57.9216L108.607 55.6384L86.8773 40.2937L63.9623 50.7517L61.1088 52.0544L62.3226 49.1618L65.4301 41.7556L43.765 54.1999L40.2826 56.1999L42.0531 52.5954L46.8285 42.8757L31.8724 49.5076L29.1986 50.6931L30.2279 47.9548L32.6117 41.613H4.03455L7.38611 39.3679L23.7426 28.4118L14.181 17.9646L11.6732 15.2243L15.3197 15.9324L32.3021 19.2322L28.2504 10.1355L27.0219 7.37962L29.8246 8.49779L49.9428 16.5251L46.4994 6.0183L45.4506 2.8181L48.3119 4.59447Z" fill="var(--fill-0, #101010)" stroke="var(--stroke-0, black)" stroke-width="2.45255"/>
</svg>
